<?xml version="1.0" encoding="UTF-8"?>
<svg id="Layer_1" data-name="Layer 1" xmlns="http://www.w3.org/2000/svg" viewBox="-30 0 236.84 370.9" preserveAspectRatio="xMidYMid slice">
  <style>
    path { fill: #000; }
    @media (prefers-color-scheme: dark) {
      path { fill: #FFF; }
    }
  </style>
  <path d="M111.96,367.36c.28,4.19-5.15,3.24-6.98,2.67-6.45-2.02-12.63-.27-19.18.24l-10.64-.73c-12.08-.82-15.7,3.63-19.89-.25-.67-9.47-.36-18.77.11-28.45,1.22-24.87.63-49.01,0-73.87l-.36-14.11c-6.84-1.13-13.08-1.31-18.91-4.16-14.52-7.09-24.88-31.74-28.81-48.31C1.9,177.72-.97,154.49.3,130.96l3.25-31.54c.53-5.1,1.57-10.69,3.79-15.01,3.03-5.87,11.16-8.32,15.82-3.69,11.71,11.63,11.93,37.39,10.99,55.14-.39,7.44.25,14.64.44,22.01.37,14.19,2.26,27.4,6.41,40.94,2.76,9,7.1,17.99,15.53,22.38.2-20.32,2.42-39.44,3.16-59.24l.8-21.5c.5-13.41-.59-26.19-1.14-39.72-.88-21.64-.61-42.8,0-64.4.3-10.77,3.01-21.35,9.27-29.56C73.51.37,80.58-1.24,87.93.88c6.96,2,14.17,6.67,15.45,14.69,3.14,19.68,5.44,39.16,5.35,59.32l-.32,72.96c-.05,10.64,2.21,20.79,1.2,31.31-.47,4.84-.1,9.83.08,14.82l6.15-4.03c9.64-4.15,13.67-11.95,15.56-21.86,3.4-17.82,4.8-35.59,6.07-53.75.61-8.74,1.14-17.27.92-25.99-.42-15.8,2.84-31.28,11.19-44.81,1.75-2.84,5.79-7.56,9.26-6.59,8.19,2.29,12.7,10.64,13.65,18.45l3.82,31.53c1.14,9.4.22,18.51-.28,27.96l-1.12,20.99c-.49,9.14-1.69,17.4-4.9,25.75l-6.99,18.21c-6.55,17.05-17.16,32.61-34.51,40.53-5.9,2.69-12.58,3.44-19.56,4.96l-1.12,38.58.03,57.05c0,4.19,1.66,9.02,1.93,13.14l2.19,33.27Z"/>
</svg>
